HIERARCHY
ROOT Hips
{
    OFFSET 0.00 0.00 0.00
    CHANNELS 6 Xposition Yposition Zposition Yrotation Xrotation Zrotation
    JOINT Spine
    {
        OFFSET 0.00 10.00 0.00
        CHANNELS 3 Yrotation Xrotation Zrotation
        End Site
        {
            OFFSET 0.00 10.00 0.00
        }
    }
    JOINT LeftUpLeg
    {
        OFFSET -5.00 0.00 0.00
        CHANNELS 3 Yrotation Xrotation Zrotation
        JOINT LeftLeg
        {
            OFFSET 0.00 -15.00 0.00
            CHANNELS 3 Yrotation Xrotation Zrotation
            JOINT LeftFoot
            {
                OFFSET 0.00 -15.00 5.00
                CHANNELS 3 Yrotation Xrotation Zrotation
                End Site
                {
                    OFFSET 0.00 -5.00 5.00
                }
            }
        }
    }
    JOINT RightUpLeg
    {
        OFFSET 5.00 0.00 0.00
        CHANNELS 3 Yrotation Xrotation Zrotation
        JOINT RightLeg
        {
            OFFSET 0.00 -15.00 0.00
            CHANNELS 3 Yrotation Xrotation Zrotation
            JOINT RightFoot
            {
                OFFSET 0.00 -15.00 5.00
                CHANNELS 3 Yrotation Xrotation Zrotation
                End Site
                {
                    OFFSET 0.00 -5.00 5.00
                }
            }
        }
    }
}
MOTION
Frames: 43
Frame Time: 0.0166667
0.000000 0.000000 242.000000 0.000000 0.000000 0.000000 0.000000 -2.853170 0.000000 0.000000 9.510565 0.000000 0.000000 28.531695 0.000000 0.000000 -14.265848 0.000000 0.000000 -9.510565 0.000000 0.000000 -28.531695 0.000000 0.000000 14.265848 0.000000
0.026399 0.000000 243.999826 0.756303 0.000000 0.000000 0.000000 -2.967817 0.000000 0.000000 9.892723 0.000000 0.000000 29.678170 0.000000 0.000000 -14.839085 0.000000 0.000000 -9.892723 0.000000 0.000000 -29.678170 0.000000 0.000000 14.839085 0.000000
0.079193 0.000000 245.999129 1.512605 0.000000 0.000000 0.000000 -2.999342 0.000000 0.000000 9.997807 0.000000 0.000000 29.993421 0.000000 0.000000 -14.996710 0.000000 0.000000 -9.997807 0.000000 0.000000 -29.993421 0.000000 0.000000 14.996710 0.000000
0.158372 0.000000 247.997561 2.268908 0.000000 0.000000 0.000000 -2.946862 0.000000 0.000000 9.822873 0.000000 0.000000 29.468618 0.000000 0.000000 -14.734309 0.000000 0.000000 -9.822873 0.000000 0.000000 -29.468618 0.000000 0.000000 14.734309 0.000000
0.263923 0.000000 249.994774 3.025210 0.000000 0.000000 0.000000 -2.811846 0.000000 0.000000 9.372820 0.000000 0.000000 28.118460 0.000000 0.000000 -14.059230 0.000000 0.000000 -9.372820 0.000000 0.000000 -28.118460 0.000000 0.000000 14.059230 0.000000
0.395827 0.000000 251.990419 3.781513 0.000000 0.000000 0.000000 -2.598076 0.000000 0.000000 8.660254 0.000000 0.000000 25.980762 0.000000 0.000000 -12.990381 0.000000 0.000000 -8.660254 0.000000 0.000000 -25.980762 0.000000 0.000000 12.990381 0.000000
0.554061 0.000000 253.984150 4.537815 0.000000 0.000000 0.000000 -2.311540 0.000000 0.000000 7.705132 0.000000 0.000000 23.115397 0.000000 0.000000 -11.557699 0.000000 0.000000 -7.705132 0.000000 0.000000 -23.115397 0.000000 0.000000 11.557699 0.000000
0.738597 0.000000 255.975618 5.294118 0.000000 0.000000 0.000000 -1.960262 0.000000 0.000000 6.534206 0.000000 0.000000 19.602618 0.000000 0.000000 -9.801309 0.000000 0.000000 -6.534206 0.000000 0.000000 -19.602618 0.000000 0.000000 9.801309 0.000000
0.949405 0.000000 257.964477 6.050420 0.000000 0.000000 0.000000 -1.554081 0.000000 0.000000 5.180270 0.000000 0.000000 15.540810 0.000000 0.000000 -7.770405 0.000000 0.000000 -5.180270 0.000000 0.000000 -15.540810 0.000000 0.000000 7.770405 0.000000
1.186446 0.000000 259.950381 6.806723 0.000000 0.000000 0.000000 -1.104374 0.000000 0.000000 3.681246 0.000000 0.000000 11.043737 0.000000 0.000000 -5.521868 0.000000 0.000000 -3.681246 0.000000 0.000000 -11.043737 0.000000 0.000000 5.521868 0.000000
1.449679 0.000000 261.932982 7.563025 0.000000 0.000000 0.000000 -0.623735 0.000000 0.000000 2.079117 0.000000 0.000000 6.237351 0.000000 0.000000 -3.118675 0.000000 0.000000 -2.079117 0.000000 0.000000 -6.237351 0.000000 0.000000 3.118675 0.000000
1.739059 0.000000 263.911936 8.319328 0.000000 0.000000 0.000000 -0.125627 0.000000 0.000000 0.418757 0.000000 0.000000 1.256270 0.000000 0.000000 -0.628135 0.000000 0.000000 -0.418757 0.000000 0.000000 -1.256270 0.000000 0.000000 0.628135 0.000000
2.054535 0.000000 265.886898 9.075630 0.000000 0.000000 0.000000 0.376000 0.000000 0.000000 -1.253332 0.000000 0.000000 -3.759997 0.000000 0.000000 1.879999 0.000000 0.000000 1.253332 0.000000 0.000000 3.759997 0.000000 0.000000 -1.879999 0.000000
2.396052 0.000000 267.857524 9.831933 0.000000 0.000000 0.000000 0.867095 0.000000 0.000000 -2.890318 0.000000 0.000000 -8.670954 0.000000 0.000000 4.335477 0.000000 0.000000 2.890318 0.000000 0.000000 8.670954 0.000000 0.000000 -4.335477 0.000000
2.763551 0.000000 269.823470 10.588235 0.000000 0.000000 0.000000 1.333906 0.000000 0.000000 -4.446352 0.000000 0.000000 -13.339055 0.000000 0.000000 6.669528 0.000000 0.000000 4.446352 0.000000 0.000000 13.339055 0.000000 0.000000 -6.669528 0.000000
3.156968 0.000000 271.784394 11.344538 0.000000 0.000000 0.000000 1.763356 0.000000 0.000000 -5.877853 0.000000 0.000000 -17.633558 0.000000 0.000000 8.816779 0.000000 0.000000 5.877853 0.000000 0.000000 17.633558 0.000000 0.000000 -8.816779 0.000000
3.576234 0.000000 273.739954 12.100840 0.000000 0.000000 0.000000 2.143418 0.000000 0.000000 -7.144727 0.000000 0.000000 -21.434180 0.000000 0.000000 10.717090 0.000000 0.000000 7.144727 0.000000 0.000000 21.434180 0.000000 0.000000 -10.717090 0.000000
4.021276 0.000000 275.689810 12.857143 0.000000 0.000000 0.000000 2.463448 0.000000 0.000000 -8.211492 0.000000 0.000000 -24.634476 0.000000 0.000000 12.317238 0.000000 0.000000 8.211492 0.000000 0.000000 24.634476 0.000000 0.000000 -12.317238 0.000000
4.492016 0.000000 277.633622 13.613445 0.000000 0.000000 0.000000 2.714481 0.000000 0.000000 -9.048271 0.000000 0.000000 -27.144812 0.000000 0.000000 13.572406 0.000000 0.000000 9.048271 0.000000 0.000000 27.144812 0.000000 0.000000 -13.572406 0.000000
4.988373 0.000000 279.571050 14.369748 0.000000 0.000000 0.000000 2.889488 0.000000 0.000000 -9.631626 0.000000 0.000000 -28.894877 0.000000 0.000000 14.447439 0.000000 0.000000 9.631626 0.000000 0.000000 28.894877 0.000000 0.000000 -14.447439 0.000000
5.510260 0.000000 281.501759 15.126050 0.000000 0.000000 0.000000 2.983566 0.000000 0.000000 -9.945219 0.000000 0.000000 -29.835657 0.000000 0.000000 14.917828 0.000000 0.000000 9.945219 0.000000 0.000000 29.835657 0.000000 0.000000 -14.917828 0.000000
6.057586 0.000000 283.425410 15.882353 0.000000 0.000000 0.000000 2.994080 0.000000 0.000000 -9.980267 0.000000 0.000000 -29.940802 0.000000 0.000000 14.970401 0.000000 0.000000 9.980267 0.000000 0.000000 29.940802 0.000000 0.000000 -14.970401 0.000000
6.630256 0.000000 285.341669 16.638655 0.000000 0.000000 0.000000 2.920737 0.000000 0.000000 -9.735789 0.000000 0.000000 -29.207367 0.000000 0.000000 14.603684 0.000000 0.000000 9.735789 0.000000 0.000000 29.207367 0.000000 0.000000 -14.603684 0.000000
7.228169 0.000000 287.250202 17.394958 0.000000 0.000000 0.000000 2.765589 0.000000 0.000000 -9.218632 0.000000 0.000000 -27.655895 0.000000 0.000000 13.827947 0.000000 0.000000 9.218632 0.000000 0.000000 27.655895 0.000000 0.000000 -13.827947 0.000000
7.851223 0.000000 289.150677 18.151261 0.000000 0.000000 0.000000 2.532984 0.000000 0.000000 -8.443279 0.000000 0.000000 -25.329838 0.000000 0.000000 12.664919 0.000000 0.000000 8.443279 0.000000 0.000000 25.329838 0.000000 0.000000 -12.664919 0.000000
8.499307 0.000000 291.042762 18.907563 0.000000 0.000000 0.000000 2.229434 0.000000 0.000000 -7.431448 0.000000 0.000000 -22.294345 0.000000 0.000000 11.147172 0.000000 0.000000 7.431448 0.000000 0.000000 22.294345 0.000000 0.000000 -11.147172 0.000000
9.172310 0.000000 292.926128 19.663866 0.000000 0.000000 0.000000 1.863443 0.000000 0.000000 -6.211478 0.000000 0.000000 -18.634433 0.000000 0.000000 9.317217 0.000000 0.000000 6.211478 0.000000 0.000000 18.634433 0.000000 0.000000 -9.317217 0.000000
9.870114 0.000000 294.800447 20.420168 0.000000 0.000000 0.000000 1.445261 0.000000 0.000000 -4.817537 0.000000 0.000000 -14.452610 0.000000 0.000000 7.226305 0.000000 0.000000 4.817537 0.000000 0.000000 14.452610 0.000000 0.000000 -7.226305 0.000000
10.592597 0.000000 296.665391 21.176471 0.000000 0.000000 0.000000 0.986600 0.000000 0.000000 -3.288666 0.000000 0.000000 -9.865999 0.000000 0.000000 4.933000 0.000000 0.000000 3.288666 0.000000 0.000000 9.865999 0.000000 0.000000 -4.933000 0.000000
11.339634 0.000000 298.520637 21.932773 0.000000 0.000000 0.000000 0.500306 0.000000 0.000000 -1.667687 0.000000 0.000000 -5.003062 0.000000 0.000000 2.501531 0.000000 0.000000 1.667687 0.000000 0.000000 5.003062 0.000000 0.000000 -2.501531 0.000000
12.111095 0.000000 300.365860 22.689076 0.000000 0.000000 0.000000 0.000000 0.000000 0.000000 -0.000000 0.000000 0.000000 -0.000000 0.000000 0.000000 0.000000 0.000000 0.000000 0.000000 0.000000 0.000000 0.000000 0.000000 0.000000 -0.000000 0.000000
12.906844 0.000000 302.200740 23.445378 0.000000 0.000000 0.000000 -0.500306 0.000000 0.000000 1.667687 0.000000 0.000000 5.003062 0.000000 0.000000 -2.501531 0.000000 0.000000 -1.667687 0.000000 0.000000 -5.003062 0.000000 0.000000 2.501531 0.000000
13.726743 0.000000 304.024956 24.201681 0.000000 0.000000 0.000000 -0.986600 0.000000 0.000000 3.288666 0.000000 0.000000 9.865999 0.000000 0.000000 -4.933000 0.000000 0.000000 -3.288666 0.000000 0.000000 -9.865999 0.000000 0.000000 4.933000 0.000000
14.570650 0.000000 305.838191 24.957983 0.000000 0.000000 0.000000 -1.445261 0.000000 0.000000 4.817537 0.000000 0.000000 14.452610 0.000000 0.000000 -7.226305 0.000000 0.000000 -4.817537 0.000000 0.000000 -14.452610 0.000000 0.000000 7.226305 0.000000
15.438418 0.000000 307.640129 25.714286 0.000000 0.000000 0.000000 -1.863443 0.000000 0.000000 6.211478 0.000000 0.000000 18.634433 0.000000 0.000000 -9.317217 0.000000 0.000000 -6.211478 0.000000 0.000000 -18.634433 0.000000 0.000000 9.317217 0.000000
16.329895 0.000000 309.430455 26.470588 0.000000 0.000000 0.000000 -2.229434 0.000000 0.000000 7.431448 0.000000 0.000000 22.294345 0.000000 0.000000 -11.147172 0.000000 0.000000 -7.431448 0.000000 0.000000 -22.294345 0.000000 0.000000 11.147172 0.000000
17.244925 0.000000 311.208859 27.226891 0.000000 0.000000 0.000000 -2.532984 0.000000 0.000000 8.443279 0.000000 0.000000 25.329838 0.000000 0.000000 -12.664919 0.000000 0.000000 -8.443279 0.000000 0.000000 -25.329838 0.000000 0.000000 12.664919 0.000000
18.183350 0.000000 312.975029 27.983193 0.000000 0.000000 0.000000 -2.765589 0.000000 0.000000 9.218632 0.000000 0.000000 27.655895 0.000000 0.000000 -13.827947 0.000000 0.000000 -9.218632 0.000000 0.000000 -27.655895 0.000000 0.000000 13.827947 0.000000
19.145006 0.000000 314.728659 28.739496 0.000000 0.000000 0.000000 -2.920737 0.000000 0.000000 9.735789 0.000000 0.000000 29.207367 0.000000 0.000000 -14.603684 0.000000 0.000000 -9.735789 0.000000 0.000000 -29.207367 0.000000 0.000000 14.603684 0.000000
20.129726 0.000000 316.469443 29.495798 0.000000 0.000000 0.000000 -2.994080 0.000000 0.000000 9.980267 0.000000 0.000000 29.940802 0.000000 0.000000 -14.970401 0.000000 0.000000 -9.980267 0.000000 0.000000 -29.940802 0.000000 0.000000 14.970401 0.000000
21.137337 0.000000 318.197077 30.252101 0.000000 0.000000 0.000000 -2.983566 0.000000 0.000000 9.945219 0.000000 0.000000 29.835657 0.000000 0.000000 -14.917828 0.000000 0.000000 -9.945219 0.000000 0.000000 -29.835657 0.000000 0.000000 14.917828 0.000000
22.167665 0.000000 319.911260 31.008403 0.000000 0.000000 0.000000 -2.889488 0.000000 0.000000 9.631626 0.000000 0.000000 28.894877 0.000000 0.000000 -14.447439 0.000000 0.000000 -9.631626 0.000000 0.000000 -28.894877 0.000000 0.000000 14.447439 0.000000
23.220529 0.000000 321.611694 31.764706 0.000000 0.000000 0.000000 -2.714481 0.000000 0.000000 9.048271 0.000000 0.000000 27.144812 0.000000 0.000000 -13.572406 0.000000 0.000000 -9.048271 0.000000 0.000000 -27.144812 0.000000 0.000000 13.572406 0.000000
